<?xml version="1.0" encoding="UTF-8"?>
<svg xmlns="http://www.w3.org/2000/svg" xmlns:xlink="http://www.w3.org/1999/xlink" width="px" height="32px" viewBox="0 0 32 32" version="1.1">
<g id="surface1">
<path style=" stroke:none;fill-rule:nonzero;fill:rgb(0%,0%,0%);fill-opacity:1;" d="M 4 3 L 4 6.5 L 1.5 6.5 C 0.667969 6.5 0 7.167969 0 8 C 0 8.832031 0.667969 9.5 1.5 9.5 L 4 9.5 L 4 14.5 L 1.5 14.5 C 0.667969 14.5 0 15.167969 0 16 C 0 16.832031 0.667969 17.5 1.5 17.5 L 4 17.5 L 4 22.5 L 1.5 22.5 C 0.667969 22.5 0 23.167969 0 24 C 0 24.832031 0.667969 25.5 1.5 25.5 L 4 25.5 L 4 29 C 4 30.65625 5.34375 32 7 32 L 12 32 L 12 0 L 7 0 C 5.34375 0 4 1.34375 4 3 M 27 0 L 14 0 L 14 32 L 27 32 C 28.65625 32 30 30.65625 30 29 L 30 3 C 30 1.34375 28.65625 0 27 0 "/>
</g>
</svg>
