<?xml version="1.0" encoding="UTF-8"?>
<svg xmlns="http://www.w3.org/2000/svg" xmlns:xlink="http://www.w3.org/1999/xlink" width="px" height="32px" viewBox="0 0 24 32" version="1.1">
<g id="surface1">
<path style=" stroke:none;fill-rule:nonzero;fill:rgb(0%,0%,0%);fill-opacity:1;" d="M 0 3 C 0 1.34375 1.34375 0 3 0 L 3 27.585938 L 11.132812 21.78125 C 11.648438 21.40625 12.355469 21.40625 12.875 21.78125 L 21 27.585938 L 21 3 L 3 3 L 3 0 L 21 0 C 22.65625 0 24 1.34375 24 3 L 24 30.5 C 24 31.0625 23.6875 31.574219 23.1875 31.832031 C 22.6875 32.085938 22.085938 32.042969 21.632812 31.71875 L 12 24.84375 L 2.367188 31.71875 C 1.914062 32.042969 1.3125 32.085938 0.8125 31.832031 C 0.3125 31.574219 0 31.0625 0 30.5 Z M 0 3 "/>
</g>
</svg>
