<?xml version="1.0" encoding="UTF-8"?>
<svg xmlns="http://www.w3.org/2000/svg" xmlns:xlink="http://www.w3.org/1999/xlink" width="px" height="32px" viewBox="0 0 36 32" version="1.1">
<g id="surface1">
<path style=" stroke:none;fill-rule:nonzero;fill:rgb(0%,0%,0%);fill-opacity:1;" d="M 9.75 2 C 6.289062 2 3.050781 2.914062 1.695312 3.351562 C 0.644531 3.6875 0 4.65625 0 5.695312 L 0 25.21875 C 0 26.851562 1.5 27.980469 3 27.730469 C 4.238281 27.523438 6.425781 27.25 9.25 27.25 C 12.625 27.25 15.34375 28.84375 16.28125 29.476562 C 16.75 29.789062 17.332031 30 17.96875 30 C 18.6875 30 19.320312 29.738281 19.800781 29.382812 C 20.636719 28.769531 23.070312 27.25 26.75 27.25 C 29.730469 27.25 31.78125 27.5 32.9375 27.699219 C 34.429688 27.957031 36 26.835938 36 25.164062 L 36 5.695312 C 36 4.664062 35.355469 3.6875 34.304688 3.351562 C 32.949219 2.914062 29.710938 2 26.25 2 C 23.949219 2 21.761719 2.398438 20.164062 2.792969 C 19.363281 2.992188 18.695312 3.1875 18.230469 3.335938 C 18.148438 3.363281 18.070312 3.386719 18 3.414062 C 17.285156 3.179688 16.566406 2.972656 15.835938 2.792969 C 14.238281 2.398438 12.050781 2 9.75 2 M 16.5 6.082031 L 16.5 26.117188 C 14.875 25.261719 12.300781 24.25 9.25 24.25 C 6.570312 24.25 4.414062 24.480469 3 24.695312 L 3 6.082031 C 4.394531 5.664062 7.023438 5 9.75 5 C 11.726562 5 13.664062 5.351562 15.117188 5.707031 C 15.65625 5.835938 16.125 5.96875 16.5 6.082031 M 19.5 26.03125 L 19.5 6.082031 C 19.875 5.96875 20.34375 5.835938 20.882812 5.707031 C 22.335938 5.351562 24.273438 5 26.25 5 C 28.976562 5 31.605469 5.664062 33 6.082031 L 33 24.667969 C 31.644531 24.460938 29.570312 24.25 26.75 24.25 C 23.539062 24.25 21.074219 25.1875 19.5 26.039062 Z M 19.5 26.03125 "/>
</g>
</svg>
