<?xml version="1.0" encoding="UTF-8"?>
<svg xmlns="http://www.w3.org/2000/svg" xmlns:xlink="http://www.w3.org/1999/xlink" width="px" height="32px" viewBox="0 0 36 32" version="1.1">
<g id="surface1">
<path style=" stroke:none;fill-rule:nonzero;fill:rgb(0%,0%,0%);fill-opacity:1;" d="M 17.992188 0 C 18.570312 0 19.09375 0.324219 19.34375 0.84375 L 23.632812 9.675781 L 33.207031 11.085938 C 33.769531 11.167969 34.238281 11.5625 34.414062 12.105469 C 34.585938 12.648438 34.445312 13.238281 34.042969 13.636719 L 27.101562 20.523438 L 28.738281 30.25 C 28.832031 30.8125 28.601562 31.382812 28.136719 31.71875 C 27.675781 32.054688 27.054688 32.09375 26.554688 31.824219 L 17.992188 27.25 L 9.4375 31.820312 C 8.929688 32.085938 8.320312 32.050781 7.855469 31.710938 C 7.394531 31.375 7.15625 30.804688 7.25 30.242188 L 8.886719 20.519531 L 1.945312 13.636719 C 1.539062 13.238281 1.398438 12.644531 1.574219 12.105469 C 1.75 11.570312 2.21875 11.175781 2.78125 11.085938 L 12.355469 9.675781 L 16.644531 0.84375 C 16.898438 0.324219 17.417969 0 17.992188 0 M 17.992188 4.9375 L 14.710938 11.699219 C 14.496094 12.144531 14.070312 12.457031 13.582031 12.53125 L 6.1875 13.617188 L 11.554688 18.9375 C 11.898438 19.28125 12.0625 19.769531 11.980469 20.25 L 10.710938 27.730469 L 17.289062 24.21875 C 17.730469 23.980469 18.261719 23.980469 18.699219 24.21875 L 25.273438 27.730469 L 24.011719 20.257812 C 23.929688 19.773438 24.085938 19.289062 24.4375 18.945312 L 29.804688 13.625 L 22.414062 12.53125 C 21.925781 12.457031 21.5 12.148438 21.28125 11.699219 Z M 17.992188 4.9375 "/>
</g>
</svg>
