<?xml version="1.0" encoding="UTF-8"?>
<svg xmlns="http://www.w3.org/2000/svg" xmlns:xlink="http://www.w3.org/1999/xlink" width="px" height="32px" viewBox="0 0 32 32" version="1.1">
<g id="surface1">
<path style=" stroke:none;fill-rule:nonzero;fill:rgb(0%,0%,0%);fill-opacity:1;" d="M 12.519531 5.09375 C 13.179688 3.84375 14.492188 3 16 3 C 17.507812 3 18.820312 3.84375 19.480469 5.09375 C 19.820312 5.730469 20.5625 6.039062 21.25 5.824219 C 22.601562 5.414062 24.132812 5.738281 25.195312 6.804688 C 26.257812 7.875 26.585938 9.398438 26.175781 10.75 C 25.960938 11.4375 26.269531 12.179688 26.90625 12.511719 C 28.15625 13.175781 29 14.488281 29 15.992188 C 29 17.5 28.15625 18.8125 26.90625 19.476562 C 26.269531 19.808594 25.960938 20.550781 26.175781 21.238281 C 26.585938 22.585938 26.261719 24.117188 25.195312 25.179688 C 24.125 26.242188 22.601562 26.574219 21.25 26.164062 C 20.5625 25.949219 19.820312 26.257812 19.488281 26.894531 C 18.824219 28.144531 17.511719 28.988281 16.007812 28.988281 C 14.5 28.988281 13.1875 28.144531 12.523438 26.894531 C 12.191406 26.257812 11.449219 25.949219 10.761719 26.164062 C 9.414062 26.574219 7.882812 26.25 6.820312 25.179688 C 5.757812 24.113281 5.414062 22.601562 5.824219 21.25 C 6.039062 20.5625 5.730469 19.820312 5.09375 19.488281 C 3.84375 18.820312 3 17.507812 3 16 C 3 14.492188 3.84375 13.179688 5.09375 12.519531 C 5.730469 12.179688 6.039062 11.4375 5.824219 10.75 C 5.414062 9.398438 5.738281 7.867188 6.804688 6.804688 C 7.875 5.742188 9.398438 5.414062 10.75 5.824219 C 11.4375 6.039062 12.179688 5.730469 12.511719 5.09375 Z M 16 0 C 13.757812 0 11.761719 1.0625 10.492188 2.710938 C 8.429688 2.445312 6.269531 3.101562 4.679688 4.6875 C 3.09375 6.273438 2.4375 8.4375 2.707031 10.5 C 1.0625 11.761719 0 13.757812 0 16 C 0 18.242188 1.0625 20.238281 2.710938 21.507812 C 2.445312 23.570312 3.101562 25.730469 4.6875 27.320312 C 6.273438 28.90625 8.4375 29.5625 10.5 29.292969 C 11.761719 30.9375 13.757812 32 16 32 C 18.242188 32 20.238281 30.9375 21.507812 29.289062 C 23.570312 29.554688 25.730469 28.898438 27.320312 27.3125 C 28.90625 25.726562 29.5625 23.5625 29.292969 21.5 C 30.9375 20.238281 32 18.242188 32 16 C 32 13.757812 30.9375 11.761719 29.289062 10.492188 C 29.554688 8.429688 28.898438 6.269531 27.3125 4.679688 C 25.726562 3.09375 23.5625 2.4375 21.5 2.707031 C 20.1875 0.996094 18.15625 -0.00390625 16 0 M 23.0625 13.0625 C 23.648438 12.476562 23.648438 11.523438 23.0625 10.945312 C 22.476562 10.363281 21.523438 10.355469 20.945312 10.945312 L 14.007812 17.882812 L 11.070312 14.945312 C 10.480469 14.355469 9.53125 14.355469 8.949219 14.945312 C 8.367188 15.53125 8.363281 16.480469 8.949219 17.0625 L 12.949219 21.0625 C 13.230469 21.34375 13.613281 21.503906 14.007812 21.503906 C 14.40625 21.503906 14.789062 21.34375 15.070312 21.0625 Z M 23.0625 13.0625 "/>
</g>
</svg>
